<?xml version="1.0" encoding="UTF-8"?>
<svg version="1.1" xmlns="http://www.w3.org/2000/svg" width="512" height="512">
<path d="M0 0 C0.87816376 -0.00705963 1.75632751 -0.01411926 2.66110229 -0.02139282 C39.38675817 -0.24960823 39.38675817 -0.24960823 56.42578125 3.203125 C57.4533252 3.40711914 58.48086914 3.61111328 59.53955078 3.82128906 C103.08757418 12.6844181 143.64943079 31.06697604 177.42578125 60.203125 C178.17085938 60.83734375 178.9159375 61.4715625 179.68359375 62.125 C193.18857958 73.93614015 205.85996868 86.68672728 216.42578125 101.203125 C217.28227191 102.35307331 218.13904558 103.50281089 218.99609375 104.65234375 C225.03672265 112.84402026 230.39583196 121.35957578 235.42578125 130.203125 C235.79026367 130.83492676 236.15474609 131.46672852 236.53027344 132.11767578 C258.13613123 169.86595072 267.9027622 212.63252497 267.73828125 255.828125 C267.7361261 256.84603119 267.73397095 257.86393738 267.73175049 258.91268921 C267.68207979 273.52176023 267.43118316 287.85388353 264.42578125 302.203125 C264.12776611 303.66540527 264.12776611 303.66540527 263.82373047 305.15722656 C256.10250263 342.06874421 241.76513831 376.72990862 219.42578125 407.203125 C219.00441895 407.78143066 218.58305664 408.35973633 218.14892578 408.95556641 C212.83047283 416.20535916 207.10598323 422.93433294 200.95703125 429.484375 C198.81762607 431.78225463 196.76559135 434.11971307 194.73828125 436.515625 C191.90582231 439.77765117 188.85305276 442.59375912 185.5546875 445.37890625 C184.11525909 446.61232472 182.70646004 447.88226067 181.328125 449.18359375 C168.26171746 461.48798095 152.95048318 471.30473898 137.42578125 480.203125 C136.67748047 480.63222168 135.92917969 481.06131836 135.15820312 481.50341797 C112.11794458 494.53883417 86.88988269 503.21379922 60.98828125 508.515625 C60.26938721 508.66298096 59.55049316 508.81033691 58.80981445 508.9621582 C43.28316033 511.91327707 27.88264717 512.61020488 12.11328125 512.578125 C10.59900543 512.57730927 10.59900543 512.57730927 9.05413818 512.57647705 C-7.45545414 512.53571101 -23.37203876 511.62841809 -39.57421875 508.203125 C-40.61610352 507.98350098 -41.65798828 507.76387695 -42.73144531 507.53759766 C-83.98371309 498.53953431 -122.5603328 479.81893716 -154.57421875 452.203125 C-155.31929688 451.56890625 -156.064375 450.9346875 -156.83203125 450.28125 C-170.34022762 438.46730198 -182.99544101 425.71346291 -193.57421875 411.203125 C-194.41869658 410.07639229 -195.26375296 408.95009297 -196.109375 407.82421875 C-202.16661555 399.65732319 -207.42477843 391.09804864 -212.41894531 382.24658203 C-213.47503088 380.37856931 -214.55059353 378.52319263 -215.62890625 376.66796875 C-233.49539504 344.84552788 -244.58457655 306.00491293 -244.77734375 269.4453125 C-244.78440338 268.5476416 -244.79146301 267.6499707 -244.79873657 266.72509766 C-245.0293913 228.77153802 -245.0293913 228.77153802 -241.57421875 211.203125 C-241.37022461 210.16140137 -241.16623047 209.11967773 -240.95605469 208.04638672 C-232.5161518 166.33213596 -215.20901811 128.37254905 -188.57421875 95.203125 C-187.78015625 94.2028125 -186.98609375 93.2025 -186.16796875 92.171875 C-174.4459664 77.84498324 -161.24484855 64.3724396 -146.26904297 53.44921875 C-144.50701298 52.15371298 -142.7764149 50.82288436 -141.046875 49.484375 C-131.41925913 42.1150728 -121.21211567 35.99896047 -110.57421875 30.203125 C-109.91373535 29.8412207 -109.25325195 29.47931641 -108.57275391 29.10644531 C-75.7388857 11.33312634 -37.47478686 0.2021214 0 0 Z " fill="#FE0000" transform="translate(244.57421875,-0.203125)"/>
</svg>
